<svg width="1008" height="1008" viewBox="0 0 1008 1008" fill="none" xmlns="http://www.w3.org/2000/svg">
<g clip-path="url(#clip0_20_474)" filter="url(#filter0_d_20_474)">
<path d="M340.812 39.5291L340.818 39.5352C344.286 43.0033 348.761 45.3093 353.612 46.0303C420.465 55.946 484.821 86.5867 536.169 137.935C587.511 189.277 618.158 253.639 628.073 320.492C628.788 325.343 631.095 329.818 634.563 333.286C650.36 349.083 677.109 335.55 673.82 313.449C662.468 237.186 627.496 163.785 568.907 105.196C510.319 46.6084 436.911 11.6356 360.649 0.277909C338.547 -3.01141 325.009 23.732 340.812 39.5291Z" fill="white"/>
<path d="M667.236 960.509H667.23C663.762 957.035 659.286 954.735 654.436 954.014C587.583 944.098 523.221 913.458 471.879 862.11C420.531 810.767 389.89 746.405 379.974 679.552C379.253 674.701 376.947 670.226 373.479 666.758C357.682 650.961 330.938 664.494 334.228 686.596C345.573 762.858 380.546 836.26 439.14 894.848C497.728 953.436 571.13 988.415 647.398 999.766C669.5 1003.06 683.033 976.312 667.236 960.509Z" fill="white"/>
<path d="M141.934 467.881C193.282 416.533 257.638 385.886 324.491 375.976C329.342 375.255 333.823 372.949 337.291 369.481C353.088 353.684 339.55 326.94 317.454 330.23C241.192 341.575 167.784 376.548 109.196 435.136C50.6078 493.73 15.635 567.132 4.27733 643.4C0.988011 665.496 27.7314 679.035 43.5285 663.238L43.5346 663.232C47.0027 659.764 49.3147 655.289 50.0298 650.432C59.9454 583.585 90.5862 519.223 141.934 467.881Z" fill="white"/>
<path d="M964.515 336.806L964.509 336.812C961.041 340.28 958.735 344.756 958.014 349.606C948.098 416.459 917.458 480.821 866.11 532.163C814.767 583.511 750.405 614.152 683.558 624.068C678.702 624.789 674.226 627.095 670.758 630.563C654.961 646.36 668.5 673.104 690.596 669.814C766.858 658.469 840.266 623.49 898.854 564.902C957.442 506.314 992.415 432.912 1003.77 356.644C1007.06 334.548 980.312 321.009 964.515 336.806Z" fill="white"/>
<path d="M293.815 525.615C293.815 503.275 265.337 493.932 252.037 511.88C206.129 573.835 178.957 650.473 178.957 733.326C178.957 816.184 206.129 892.816 252.031 954.777C265.331 972.731 293.815 963.387 293.815 941.047V941.042C293.815 936.137 292.283 931.34 289.357 927.401C249.099 873.116 225.257 805.941 225.257 733.326C225.257 660.71 249.099 593.535 289.357 539.255C292.283 535.317 293.815 530.52 293.815 525.615Z" fill="white"/>
<path d="M714.229 58.9957V59.0015C714.229 63.9057 715.766 68.7027 718.686 72.6416C758.944 126.927 782.792 194.102 782.792 266.718C782.792 339.327 758.944 406.508 718.686 460.788C715.766 464.727 714.229 469.523 714.229 474.427C714.229 496.767 742.712 506.111 756.013 488.157C801.914 426.208 829.093 349.57 829.093 266.718C829.093 183.859 801.914 107.227 756.013 45.2663C742.712 27.3121 714.229 36.6497 714.229 58.9957Z" fill="white"/>
<path d="M945.047 710.229H945.042C940.137 710.229 935.34 711.76 931.402 714.686C877.122 754.945 809.947 778.787 737.331 778.787C664.716 778.787 597.541 754.945 543.255 714.686C539.317 711.76 534.52 710.229 529.615 710.229C507.275 710.229 497.938 738.713 515.886 752.013C577.835 797.915 654.473 825.087 737.331 825.087C820.184 825.087 896.822 797.915 958.783 752.013C976.731 738.713 967.393 710.229 945.047 710.229Z" fill="white"/>
<path d="M62.9972 289.815H63.003C67.9131 289.815 72.7042 288.278 76.643 285.358C130.929 245.1 198.104 221.252 270.719 221.252C343.334 221.252 410.509 245.1 464.789 285.358C468.728 288.278 473.525 289.815 478.429 289.815C500.775 289.815 510.113 261.332 492.158 248.032C430.209 202.13 353.578 174.957 270.719 174.957C187.866 174.957 111.229 202.13 49.2678 248.032C31.3195 261.332 40.6512 289.815 62.9972 289.815Z" fill="white"/>
</g>
<defs>
<filter id="filter0_d_20_474" x="0" y="0" width="1008" height="1008" filterUnits="userSpaceOnUse" color-interpolation-filters="sRGB">
<feFlood flood-opacity="0" result="BackgroundImageFix"/>
<feColorMatrix in="SourceAlpha" type="matrix" values="0 0 0 0 0 0 0 0 0 0 0 0 0 0 0 0 0 0 127 0" result="hardAlpha"/>
<feOffset dy="4"/>
<feGaussianBlur stdDeviation="2"/>
<feComposite in2="hardAlpha" operator="out"/>
<feColorMatrix type="matrix" values="0 0 0 0 0 0 0 0 0 0 0 0 0 0 0 0 0 0 0.25 0"/>
<feBlend mode="normal" in2="BackgroundImageFix" result="effect1_dropShadow_20_474"/>
<feBlend mode="normal" in="SourceGraphic" in2="effect1_dropShadow_20_474" result="shape"/>
</filter>
<clipPath id="clip0_20_474">
<rect width="1000" height="1000" fill="white" transform="translate(4)"/>
</clipPath>
</defs>
</svg>
