<svg width="1000" height="1000" viewBox="0 0 1000 1000" fill="none" xmlns="http://www.w3.org/2000/svg">
<g clip-path="url(#clip0_16_315)">
<path d="M223.724 80.4654C225.875 91.5549 231.238 102.146 239.823 110.73C257.003 127.91 282.175 132.202 303.357 123.607C310.414 120.749 317.034 116.446 322.761 110.73C325.338 108.153 327.531 105.347 329.527 102.447C330.129 101.574 330.649 100.68 331.189 99.7863C331.844 98.7158 332.603 97.6972 333.185 96.5956C333.05 96.6683 332.904 96.6995 332.769 96.7722C344.617 74.5933 341.458 46.5007 322.761 27.793C304.053 9.08535 275.96 5.92578 253.781 17.774C253.854 17.6389 253.885 17.4934 253.958 17.3583C252.856 17.9403 251.838 18.699 250.777 19.3538C249.884 19.9046 248.99 20.4243 248.117 21.0271C245.217 23.0225 242.411 25.2155 239.834 27.793C234.107 33.5196 229.815 40.1297 226.956 47.1971C224.088 54.254 222.664 61.7579 222.664 69.2617C222.653 73.0136 223.007 76.7654 223.724 80.4654Z" fill="white"/>
<path d="M366.87 237.777L549.883 420.79C572.779 443.696 609.913 443.696 632.81 420.79C634.535 419.065 636.083 417.235 637.549 415.365C637.414 415.417 637.279 415.437 637.143 415.479C655.331 392.458 654.064 359.107 632.81 337.853L449.797 154.84C433.084 138.128 408.816 133.752 388.009 141.443C388.04 141.401 388.061 141.36 388.082 141.318C387.833 141.412 387.583 141.536 387.334 141.64C386.492 141.963 385.671 142.337 384.839 142.701C381.992 143.937 379.196 145.361 376.535 147.076C376.088 147.367 375.673 147.7 375.236 148.001C372.295 149.997 369.468 152.231 366.87 154.84C355.416 166.293 349.7 181.301 349.7 196.308C349.7 203.812 351.135 211.316 353.993 218.373C356.851 225.43 361.143 232.05 366.87 237.777Z" fill="white"/>
<path d="M600.808 196.026C612.261 207.48 627.269 213.206 642.276 213.206C649.78 213.206 657.284 211.772 664.341 208.914C671.398 206.056 678.018 201.753 683.745 196.026L683.755 196.006C686.322 193.439 688.516 190.643 690.501 187.754C691.197 186.735 691.779 185.685 692.413 184.636C693.088 183.513 693.868 182.443 694.46 181.289C694.336 181.351 694.211 181.382 694.086 181.445C705.539 159.359 702.266 131.62 683.745 113.089L587.65 16.9941C569.119 -1.53683 541.38 -4.80023 519.294 6.65301C519.357 6.5283 519.388 6.40363 519.45 6.27891C518.297 6.87132 517.226 7.6611 516.104 8.32626C515.054 8.94985 514.004 9.53186 512.996 10.2282C510.107 12.2133 507.311 14.4063 504.744 16.9734L504.723 16.9838C496.139 25.5686 490.765 36.1591 488.624 47.2485C485.049 65.7275 490.412 85.5993 504.723 99.9106L600.808 196.026Z" fill="white"/>
<path d="M993.357 519.285C993.482 519.347 993.607 519.379 993.731 519.441C993.139 518.288 992.349 517.217 991.674 516.084C991.05 515.045 990.468 513.995 989.772 512.977C987.787 510.077 985.594 507.281 983.016 504.704C960.12 481.797 922.985 481.797 900.089 504.704L803.994 600.799C789.683 615.11 784.31 634.982 787.895 653.461C790.047 664.55 795.41 675.141 803.994 683.726L804.005 683.736C806.572 686.303 809.367 688.496 812.257 690.481C813.265 691.177 814.325 691.759 815.364 692.393C816.487 693.069 817.558 693.849 818.711 694.441C818.649 694.316 818.618 694.191 818.555 694.067C840.641 705.52 868.38 702.246 886.911 683.726L983.006 587.63C1001.55 569.11 1004.81 541.371 993.357 519.285Z" fill="white"/>
<path d="M563.124 602.555C565.276 613.644 570.639 624.235 579.223 632.819L579.234 632.83C580.959 634.545 582.778 636.093 584.649 637.559C584.597 637.424 584.576 637.288 584.534 637.153C607.555 655.341 640.907 654.073 662.161 632.819L845.184 449.796C861.896 433.084 866.272 408.816 858.581 388.009C858.623 388.04 858.664 388.061 858.705 388.092C858.612 387.843 858.487 387.604 858.383 387.344C858.061 386.502 857.677 385.681 857.313 384.849C856.076 382.002 854.653 379.216 852.948 376.545C852.657 376.098 852.324 375.683 852.023 375.236C850.017 372.294 847.793 369.478 845.184 366.869C836.6 358.284 826.009 352.911 814.92 350.77C796.441 347.195 776.569 352.558 762.257 366.869L579.244 549.892C564.912 564.204 559.549 584.076 563.124 602.555Z" fill="white"/>
<path d="M889.281 322.76C891.859 325.338 894.665 327.531 897.565 329.526C898.438 330.129 899.331 330.649 900.225 331.189C901.296 331.844 902.314 332.603 903.406 333.185C903.333 333.049 903.302 332.904 903.229 332.769C925.408 344.617 953.511 341.458 972.208 322.75C990.916 304.042 994.075 275.949 982.227 253.771C982.362 253.843 982.508 253.874 982.643 253.947C982.061 252.845 981.302 251.827 980.648 250.767C980.097 249.873 979.577 248.979 978.974 248.106C976.979 245.207 974.786 242.4 972.208 239.823C949.302 216.927 912.178 216.927 889.271 239.823C866.386 262.729 866.385 299.864 889.281 322.76Z" fill="white"/>
<path d="M760.187 889.29C743.008 872.11 717.836 867.818 696.654 876.403C689.597 879.261 682.977 883.563 677.25 889.29C674.673 891.868 672.48 894.674 670.484 897.573C669.882 898.446 669.362 899.34 668.822 900.234C668.167 901.305 667.408 902.323 666.826 903.414C666.961 903.342 667.106 903.31 667.242 903.238C655.393 925.427 658.553 953.52 677.26 972.217C695.968 990.925 724.061 994.084 746.24 982.236C746.167 982.371 746.136 982.516 746.064 982.652C747.165 982.07 748.184 981.311 749.244 980.656C750.137 980.105 751.031 979.586 751.904 978.993C754.804 976.998 757.61 974.805 760.187 972.227C783.083 949.321 783.083 912.186 760.187 889.29Z" fill="white"/>
<path d="M633.141 762.245L450.118 579.222C441.533 570.637 430.943 565.264 419.853 563.123C412.464 561.688 404.845 561.688 397.455 563.123C386.366 565.264 375.776 570.637 367.191 579.222C365.466 580.947 363.917 582.776 362.452 584.647C362.587 584.595 362.722 584.574 362.857 584.532C344.669 607.553 345.947 640.905 367.191 662.159L550.214 845.172C566.926 861.884 591.194 866.259 612.001 858.569C611.97 858.61 611.95 858.652 611.929 858.693C612.178 858.6 612.427 858.475 612.677 858.371C613.519 858.049 614.34 857.664 615.171 857.301C618.019 856.064 620.815 854.64 623.475 852.936C623.922 852.645 624.338 852.312 624.774 852.01C627.705 850.015 630.543 847.78 633.141 845.172C641.726 836.587 647.099 825.996 649.24 814.907C651.391 803.817 650.31 792.229 646.018 781.639C643.16 774.592 638.867 767.972 633.141 762.245Z" fill="white"/>
<path d="M399.203 803.984C384.892 789.673 365.02 784.3 346.541 787.885C335.451 790.037 324.861 795.4 316.276 803.984C313.699 806.562 311.505 809.358 309.52 812.257C308.824 813.265 308.242 814.315 307.619 815.365C306.943 816.487 306.153 817.558 305.561 818.711C305.686 818.649 305.81 818.618 305.935 818.556C294.482 840.641 297.756 868.38 316.276 886.911L412.371 983.006C430.902 1001.54 458.641 1004.8 480.727 993.348C480.665 993.472 480.633 993.597 480.571 993.721C481.724 993.129 482.795 992.339 483.928 991.664C484.978 991.04 486.027 990.458 487.035 989.762C489.935 987.777 492.731 985.584 495.309 983.006C518.205 960.11 518.205 922.975 495.309 900.079L399.203 803.984Z" fill="white"/>
<path d="M126.829 707.525C124.688 696.436 119.315 685.845 110.731 677.26C108.153 674.683 105.347 672.49 102.447 670.494C101.574 669.891 100.68 669.382 99.7862 668.831C98.7157 668.176 97.6971 667.418 96.5955 666.836C96.6682 666.971 96.6997 667.116 96.7725 667.252C74.5935 655.403 46.4902 658.563 27.7929 677.27C9.08524 695.978 5.92584 724.071 17.774 746.25C17.6389 746.177 17.4936 746.146 17.3585 746.073C17.9405 747.175 18.6988 748.193 19.3535 749.264C19.9044 750.158 20.4244 751.051 21.0168 751.924C23.0123 754.824 25.2053 757.63 27.7828 760.208C50.6789 783.104 87.8136 783.104 110.71 760.208C122.163 748.754 127.89 733.747 127.89 718.739C127.9 714.966 127.546 711.215 126.829 707.525Z" fill="white"/>
<path d="M433.667 430.724C436.535 423.667 437.959 416.163 437.959 408.659C437.959 404.907 437.606 401.156 436.889 397.456C434.737 386.366 429.374 375.776 420.789 367.191C419.064 365.466 417.235 363.917 415.364 362.452C415.416 362.587 415.437 362.722 415.479 362.857C392.468 344.669 359.106 345.947 337.852 367.191L154.829 550.214C138.107 566.926 133.742 591.194 141.432 612.001C141.391 611.97 141.349 611.949 141.307 611.929C141.401 612.178 141.526 612.427 141.63 612.677C141.952 613.519 142.326 614.34 142.69 615.161C143.937 618.009 145.351 620.804 147.065 623.475C147.356 623.922 147.689 624.338 147.99 624.775C149.996 627.716 152.221 630.543 154.829 633.151C177.725 656.048 214.86 656.048 237.756 633.151L420.769 450.128C426.517 444.402 430.809 437.791 433.667 430.724Z" fill="white"/>
<path d="M8.33657 483.926C8.96016 484.965 9.54264 486.015 10.239 487.034C12.2241 489.933 14.4166 492.729 16.9941 495.307C25.5789 503.891 36.17 509.265 47.2595 511.406C50.9594 512.123 54.7108 512.476 58.4627 512.476C65.9665 512.476 73.4709 511.042 80.5278 508.184C87.5848 505.326 94.2052 501.023 99.9319 495.296L196.027 399.201C218.923 376.295 218.923 339.17 196.027 316.264C193.449 313.686 190.653 311.494 187.753 309.508C186.745 308.812 185.696 308.23 184.646 307.607C183.524 306.931 182.453 306.141 181.289 305.549C181.352 305.673 181.382 305.798 181.445 305.923C159.359 294.47 131.62 297.733 113.089 316.264L16.9941 412.359C-1.53683 430.89 -4.80023 458.629 6.65301 480.715C6.5283 480.652 6.40347 480.621 6.27875 480.559C6.87116 481.733 7.66102 482.804 8.33657 483.926Z" fill="white"/>
</g>
<defs>
<clipPath id="clip0_16_315">
<rect width="1000" height="1000" fill="white"/>
</clipPath>
</defs>
</svg>
