<svg width="1000" height="1000" viewBox="0 0 1000 1000" fill="none" xmlns="http://www.w3.org/2000/svg">
<rect width="1000" height="1000" rx="250" fill="black"/>
<path d="M260.743 136.682C262.606 146.286 267.25 155.457 274.685 162.892C289.562 177.769 311.361 181.486 329.704 174.043C335.816 171.568 341.549 167.842 346.508 162.892C348.74 160.659 350.639 158.229 352.367 155.718C352.889 154.962 353.339 154.188 353.807 153.414C354.374 152.487 355.031 151.605 355.535 150.651C355.418 150.714 355.292 150.741 355.175 150.804C365.435 131.597 362.7 107.269 346.508 91.0685C330.307 74.8679 305.979 72.1317 286.772 82.3921C286.835 82.2751 286.863 82.1492 286.926 82.0322C285.971 82.5362 285.089 83.1932 284.171 83.7603C283.397 84.2373 282.623 84.6873 281.867 85.2093C279.356 86.9374 276.926 88.8365 274.694 91.0685C269.735 96.0278 266.017 101.752 263.542 107.872C261.058 113.984 259.825 120.482 259.825 126.98C259.816 130.229 260.122 133.478 260.743 136.682Z" fill="white"/>
<path d="M384.706 272.913L543.194 431.401C563.022 451.238 595.18 451.238 615.008 431.401C616.502 429.907 617.843 428.323 619.112 426.702C618.995 426.747 618.878 426.766 618.761 426.802C634.512 406.866 633.414 377.984 615.008 359.578L456.52 201.09C442.048 186.617 421.032 182.828 403.013 189.488C403.04 189.452 403.058 189.417 403.076 189.381C402.86 189.462 402.644 189.569 402.428 189.659C401.699 189.938 400.988 190.263 400.268 190.578C397.802 191.649 395.381 192.882 393.076 194.367C392.689 194.619 392.329 194.907 391.951 195.168C389.404 196.896 386.956 198.831 384.706 201.09C374.788 211.008 369.838 224.005 369.838 237.002C369.838 243.5 371.08 249.998 373.555 256.109C376.03 262.221 379.747 267.954 384.706 272.913Z" fill="white"/>
<path d="M587.295 236.757C597.213 246.676 610.21 251.635 623.206 251.635C629.704 251.635 636.203 250.393 642.314 247.918C648.425 245.443 654.158 241.717 659.118 236.757L659.126 236.739C661.349 234.516 663.249 232.095 664.968 229.593C665.571 228.711 666.075 227.802 666.624 226.893C667.209 225.921 667.884 224.994 668.397 223.995C668.289 224.049 668.181 224.076 668.073 224.13C677.991 205.004 675.156 180.982 659.118 164.934L575.9 81.7168C559.853 65.6691 535.83 62.843 516.705 72.7615C516.759 72.6535 516.786 72.5455 516.84 72.4375C515.841 72.9505 514.913 73.6345 513.941 74.2105C513.032 74.7505 512.123 75.2545 511.25 75.8575C508.748 77.5766 506.327 79.4757 504.104 81.6988L504.086 81.7079C496.652 89.1422 491.999 98.3134 490.145 107.917C487.048 123.92 491.693 141.128 504.086 153.522L587.295 236.757Z" fill="white"/>
<path d="M927.239 516.697C927.347 516.751 927.455 516.778 927.563 516.832C927.05 515.833 926.366 514.906 925.781 513.925C925.241 513.025 924.737 512.116 924.134 511.234C922.415 508.722 920.516 506.301 918.284 504.069C898.456 484.232 866.298 484.232 846.47 504.069L763.253 587.287C750.859 599.68 746.206 616.889 749.311 632.892C751.174 642.495 755.818 651.667 763.253 659.101L763.261 659.11C765.485 661.333 767.906 663.232 770.408 664.951C771.281 665.554 772.199 666.058 773.099 666.607C774.071 667.192 774.998 667.867 775.997 668.38C775.943 668.272 775.916 668.164 775.862 668.056C794.988 677.975 819.01 675.139 835.058 659.101L918.275 575.883C934.332 559.845 937.158 535.823 927.239 516.697Z" fill="white"/>
<path d="M554.661 588.807C556.524 598.411 561.168 607.582 568.603 615.017L568.612 615.025C570.106 616.51 571.681 617.852 573.301 619.121C573.256 619.004 573.238 618.887 573.202 618.77C593.138 634.52 622.02 633.422 640.426 615.017L798.923 456.52C813.395 442.047 817.184 421.031 810.524 403.013C810.56 403.04 810.596 403.058 810.632 403.085C810.551 402.869 810.443 402.662 810.353 402.437C810.074 401.707 809.741 400.996 809.426 400.276C808.355 397.81 807.122 395.398 805.646 393.085C805.394 392.698 805.106 392.338 804.845 391.951C803.107 389.404 801.182 386.965 798.923 384.706C791.488 377.271 782.317 372.618 772.714 370.764C756.711 367.668 739.502 372.312 727.109 384.706L568.621 543.202C556.209 555.596 551.565 572.805 554.661 588.807Z" fill="white"/>
<path d="M837.11 346.508C839.343 348.74 841.773 350.639 844.284 352.367C845.04 352.889 845.814 353.339 846.588 353.807C847.515 354.374 848.397 355.031 849.342 355.535C849.279 355.418 849.252 355.292 849.189 355.175C868.396 365.435 892.733 362.699 908.925 346.499C925.125 330.298 927.861 305.97 917.601 286.763C917.718 286.826 917.844 286.853 917.961 286.916C917.457 285.962 916.8 285.08 916.233 284.162C915.756 283.388 915.306 282.614 914.784 281.858C913.056 279.347 911.157 276.917 908.925 274.685C889.088 254.857 856.939 254.857 837.102 274.685C817.283 294.521 817.283 326.68 837.11 346.508Z" fill="white"/>
<path d="M725.316 837.118C710.438 822.24 688.64 818.523 670.297 825.958C664.186 828.433 658.452 832.159 653.493 837.118C651.261 839.35 649.362 841.78 647.634 844.291C647.112 845.047 646.662 845.821 646.194 846.595C645.627 847.522 644.97 848.404 644.466 849.35C644.583 849.287 644.709 849.26 644.826 849.197C634.565 868.412 637.301 892.74 653.502 908.932C669.703 925.133 694.031 927.869 713.238 917.609C713.175 917.726 713.148 917.851 713.085 917.968C714.039 917.464 714.921 916.807 715.839 916.24C716.613 915.763 717.387 915.313 718.143 914.8C720.654 913.072 723.084 911.173 725.316 908.941C745.144 889.104 745.144 856.946 725.316 837.118Z" fill="white"/>
<path d="M615.295 727.098L456.798 568.601C449.364 561.167 440.193 556.514 430.589 554.66C424.19 553.417 417.593 553.417 411.193 554.66C401.59 556.514 392.419 561.167 384.984 568.601C383.49 570.095 382.149 571.679 380.88 573.299C380.997 573.254 381.114 573.236 381.231 573.2C365.481 593.136 366.588 622.018 384.984 640.424L543.481 798.912C557.954 813.384 578.969 817.174 596.988 810.513C596.961 810.549 596.944 810.585 596.926 810.621C597.142 810.54 597.357 810.432 597.573 810.342C598.302 810.063 599.013 809.73 599.733 809.415C602.199 808.344 604.621 807.111 606.925 805.635C607.312 805.383 607.672 805.095 608.05 804.834C610.588 803.106 613.045 801.171 615.295 798.912C622.729 791.478 627.383 782.306 629.237 772.703C631.1 763.099 630.164 753.064 626.447 743.893C623.971 737.79 620.254 732.057 615.295 727.098Z" fill="white"/>
<path d="M412.707 763.244C400.313 750.85 383.104 746.197 367.102 749.302C357.498 751.165 348.327 755.809 340.893 763.244C338.661 765.476 336.761 767.897 335.042 770.408C334.439 771.281 333.935 772.19 333.395 773.099C332.81 774.071 332.126 774.998 331.613 775.997C331.721 775.943 331.829 775.916 331.937 775.862C322.019 794.988 324.854 819.01 340.893 835.058L424.11 918.275C440.158 934.323 464.18 937.149 483.306 927.231C483.252 927.339 483.224 927.447 483.17 927.555C484.17 927.042 485.097 926.358 486.078 925.773C486.987 925.233 487.896 924.729 488.769 924.126C491.28 922.407 493.701 920.507 495.933 918.275C515.761 898.447 515.761 866.289 495.933 846.461L412.707 763.244Z" fill="white"/>
<path d="M176.833 679.711C174.979 670.108 170.326 660.936 162.892 653.502C160.66 651.27 158.23 649.371 155.719 647.643C154.963 647.121 154.188 646.679 153.414 646.202C152.487 645.635 151.605 644.978 150.651 644.474C150.714 644.591 150.741 644.717 150.804 644.834C131.597 634.574 107.26 637.31 91.0685 653.511C74.8679 669.711 72.1318 694.04 82.3923 713.246C82.2753 713.183 82.1495 713.156 82.0324 713.093C82.5365 714.047 83.1931 714.929 83.7601 715.856C84.2371 716.63 84.6875 717.404 85.2005 718.16C86.9286 720.672 88.8276 723.102 91.0597 725.334C110.888 745.162 143.046 745.162 162.874 725.334C172.792 715.415 177.752 702.419 177.752 689.422C177.761 686.155 177.454 682.906 176.833 679.711Z" fill="white"/>
<path d="M442.552 440.004C445.036 433.892 446.269 427.394 446.269 420.896C446.269 417.647 445.963 414.398 445.342 411.193C443.479 401.59 438.835 392.419 431.4 384.984C429.906 383.49 428.322 382.149 426.702 380.88C426.747 380.997 426.765 381.114 426.801 381.231C406.874 365.48 377.983 366.588 359.577 384.984L201.081 543.481C186.599 557.954 182.819 578.969 189.479 596.988C189.443 596.961 189.407 596.943 189.371 596.925C189.452 597.141 189.56 597.357 189.65 597.573C189.929 598.302 190.253 599.013 190.568 599.724C191.648 602.19 192.872 604.612 194.357 606.925C194.609 607.312 194.897 607.672 195.158 608.05C196.895 610.597 198.822 613.045 201.081 615.304C220.909 635.132 253.067 635.132 272.895 615.304L431.383 456.807C436.36 451.848 440.077 446.124 442.552 440.004Z" fill="white"/>
<path d="M74.2194 486.076C74.7594 486.976 75.2638 487.885 75.8669 488.767C77.5859 491.278 79.4847 493.699 81.7168 495.932C89.1511 503.366 98.3229 508.019 107.926 509.873C111.13 510.494 114.379 510.8 117.628 510.8C124.126 510.8 130.625 509.558 136.736 507.083C142.848 504.608 148.581 500.882 153.54 495.923L236.757 412.705C256.585 392.868 256.585 360.719 236.757 340.882C234.525 338.65 232.104 336.751 229.593 335.032C228.72 334.429 227.811 333.925 226.902 333.385C225.93 332.8 225.003 332.116 223.995 331.603C224.049 331.711 224.076 331.819 224.13 331.927C205.004 322.008 180.982 324.834 164.935 340.882L81.7168 424.1C65.6691 440.147 62.843 464.169 72.7615 483.295C72.6535 483.241 72.5454 483.214 72.4373 483.16C72.9504 484.177 73.6344 485.104 74.2194 486.076Z" fill="white"/>
</svg>
