<svg width="1000" height="1000" viewBox="0 0 1000 1000" fill="none" xmlns="http://www.w3.org/2000/svg">
<g clip-path="url(#clip0_15_163)">
<g clip-path="url(#clip1_15_163)">
<path d="M151.99 197.505C143.31 197.505 136.005 200.555 132.32 206.52C128.52 212.675 129.095 220.61 133.15 228.64L230.665 397.445C230.83 397.765 230.83 397.97 230.665 398.265L77.4249 668.685C73.4299 676.645 73.6249 684.64 77.4249 690.81C81.1049 696.745 87.5901 700.64 96.2801 700.64H240.5C262.06 700.64 272.465 686.09 279.835 672.79C279.835 672.79 429.7 407.74 435.535 397.45C434.945 396.5 336.385 224.55 336.385 224.55C329.19 211.765 318.355 197.5 296.235 197.5H151.99V197.505Z" fill="url(#paint0_linear_15_163)"/>
<path d="M757.89 0.0101089C736.345 0.0101089 727.01 13.5801 719.275 27.4801C719.275 27.4801 408.575 578.48 398.335 596.57C398.86 597.55 603.255 972.525 603.255 972.525C610.415 985.315 621.46 999.995 643.555 999.995H787.605C796.295 999.995 803.085 996.725 806.745 990.78C810.595 984.63 810.485 976.495 806.45 968.49L603.13 597.015C603.035 596.876 602.984 596.711 602.984 596.543C602.984 596.374 603.035 596.209 603.13 596.07L922.445 31.4701C926.46 23.5001 926.545 15.3701 922.75 9.21013C919.07 3.27013 912.26 -0.00488281 903.57 -0.00488281H757.875V0.00511169L757.89 0.0101089Z" fill="url(#paint1_linear_15_163)"/>
</g>
</g>
<defs>
<linearGradient id="paint0_linear_15_163" x1="255.018" y1="197.5" x2="255.018" y2="700.64" gradientUnits="userSpaceOnUse">
<stop stop-color="#0094DD"/>
<stop offset="1" stop-color="#0077B2" stop-opacity="0.9"/>
</linearGradient>
<linearGradient id="paint1_linear_15_163" x1="661.932" y1="-0.00488281" x2="661.932" y2="999.995" gradientUnits="userSpaceOnUse">
<stop stop-color="#CF47EE"/>
<stop offset="1" stop-color="#A539BE" stop-opacity="0.9"/>
</linearGradient>
<clipPath id="clip0_15_163">
<rect width="1000" height="1000" fill="white"/>
</clipPath>
<clipPath id="clip1_15_163">
<rect width="1000" height="1000" fill="white"/>
</clipPath>
</defs>
</svg>
