<svg width="876" height="321" viewBox="0 0 876 321" fill="none" xmlns="http://www.w3.org/2000/svg">
<path fill-rule="evenodd" clip-rule="evenodd" d="M17.5781 279V110.036L65.33 147.116V197H65.332V242.086H100.928C108.252 242.086 114.209 240.914 118.799 238.57C123.389 236.227 126.758 233.053 128.906 229.049C131.055 225.045 132.129 220.553 132.129 215.572C132.129 209.713 131.104 204.635 129.053 200.338C127.1 196.041 123.975 192.721 119.678 190.377C115.479 188.033 109.863 186.861 102.832 186.861H90.33V154.928H93.0176C101.025 154.928 107.52 153.951 112.5 151.998C117.578 150.045 121.289 147.213 123.633 143.502C125.977 139.693 127.148 135.006 127.148 129.439C127.148 123.092 125.977 117.965 123.633 114.059C121.289 110.152 117.578 107.32 112.5 105.562C107.52 103.707 101.074 102.779 93.1641 102.779H65.332V102.804L17.5781 65.7226V65.7188H93.1641C105.957 65.7188 117.383 66.8906 127.441 69.2344C137.5 71.5781 146.045 75.1914 153.076 80.0742C160.205 84.957 165.625 91.0605 169.336 98.3848C173.047 105.709 174.902 114.352 174.902 124.312C174.902 133.004 172.949 141.109 169.043 148.629C165.234 156.148 159.082 162.252 150.586 166.939C148.813 167.917 146.916 168.802 144.892 169.593C149.158 170.678 152.961 172.187 156.299 174.117C164.502 178.707 170.41 184.762 174.023 192.281C177.637 199.801 179.443 207.76 179.443 216.158C179.443 230.025 176.465 241.646 170.508 251.021C164.551 260.299 155.713 267.281 143.994 271.969C132.373 276.656 118.018 279 100.928 279H65.332H35.8887H17.5781ZM261.182 65.7188V279H213.574V65.7188H261.182ZM394.629 102.779V279H347.021V102.779H283.447V65.7188H347.021H394.629H459.521V102.779H394.629ZM540.674 279H557.08H575.83H591.797L664.893 65.7188H611.719L566.312 224.503L521.045 65.7188H468.018L540.674 279ZM799.365 65.7188H847.119V205.758C847.119 222.359 843.604 236.324 836.572 247.652C829.639 258.98 819.971 267.525 807.568 273.287C795.166 279.049 780.811 281.93 764.502 281.93C748.096 281.93 733.643 279.049 721.143 273.287C708.74 267.525 698.975 258.98 691.846 247.652C684.814 236.324 681.299 222.359 681.299 205.758V65.7188H729.199V205.758C729.199 214.938 730.566 222.457 733.301 228.316C736.133 234.078 740.186 238.326 745.459 241.061C750.732 243.697 757.08 245.016 764.502 245.016C771.924 245.016 778.223 243.697 783.398 241.061C788.672 238.326 792.627 234.078 795.264 228.316C797.998 222.457 799.365 214.938 799.365 205.758V65.7188Z" fill="#EFEFEF"/>
</svg>
