<svg width="1000" height="1000" fill="none" xmlns="http://www.w3.org/2000/svg"><g clip-path="url(#a)" fill="#fff"><path d="M504 310h-14v15h14v-15ZM501 288h-15v15h15v-15ZM488 328h1-1ZM495 225h-15v15h15v-15ZM498 266h-15v15h15v-15ZM496 245h-15v15h15v-15ZM469 277h-15v15h15v-15ZM465 255h-14v14h14v-14ZM494 205h-14v15h14v-15ZM463 233h-15v15h15v-15ZM460 193h-14v14h14v-14ZM461 212h-15v15h15v-15ZM461 174h-15v15h15v-15ZM526 197h-15v15h15v-15ZM559 304h-15v15h15v-15ZM474 300h-15v15h15v-15ZM557 283h-15v15h15v-15ZM546 335l14-1v-10h-14v11ZM555 243h-14v15h14v-15ZM556 263h-15v15h15v-15ZM495 187h-15v15h15v-15ZM531 297h-15v15h15v-15ZM518 332l15-2v-12h-15v14ZM529 276h-15v15h15v-15ZM555 224h-15v15h15v-15ZM527 255h-15v15h15v-15ZM526 235h-15v15h15v-15ZM526 216h-15v15h15v-15ZM405 275h-14v14h14v-14ZM350 205h-14v14h14v-14ZM359 231h-15v15h15v-15ZM340 157h-15v15h15v-15ZM339 137h-15v14h15v-14ZM413 301h-15v15h15v-15ZM405 336l15-9v-1h-15v10ZM463 330l14-5v-2h-14v7ZM480 934h-15v15h15v-15ZM480 953h-15v15h15v-15ZM368 259h-15v14h15v-14ZM480 915h-15v15h15v-15ZM373 330h13l2-2v-13h-15v15ZM480 896h-15v15h15v-15ZM344 180h-15v14h15v-14ZM424 197h-15v15h15v-15ZM426 218h-14v15h14v-15ZM435 264h-15v15h15v-15ZM430 241h-15v14h15v-14ZM424 159h-15v15h15v-15ZM423 177h-15v15h15v-15ZM398 249h-15v15h15v-15ZM384 179h-15v14h15v-14ZM441 288h-15v15h15v-15ZM392 224h-15v15h15v-15ZM387 201h-15v14h15v-14ZM384 140h-15v15h15v-15ZM383 159h-15v14h15v-14ZM378 287h-15v15h15v-15ZM678 321h-15v15h15v-15ZM678 283h-15v14h15v-14ZM678 302h-15v15h15v-15ZM678 263h-15v15h15v-15ZM678 244h-15v15h15v-15ZM700 341h-15v15h15v-15ZM678 225h-15v15h15v-15ZM685 368l4 1 11 6v-14h-15v7ZM655 261h-14v15h14v-15ZM655 242h-14v15h14v-15ZM656 281h-15v14h15v-14ZM664 360l15 5v-5h-15ZM679 340h-15v15h15v-15ZM656 300h-15v15h15v-15ZM655 223h-14v15h14v-15ZM721 361h-15v15h15v-15ZM721 323h-15v15h15v-15ZM721 342h-15v15h15v-15ZM720 304h-14v14h14v-14ZM720 265h-14v15h14v-15ZM720 285h-14v14h14v-14ZM699 284h-14v15h14v-15ZM699 265h-15v14h15v-14ZM700 322h-15v15h15v-15ZM700 303h-15v15h15v-15ZM699 246h-15v14h15v-14ZM721 387v-7h-10l10 7ZM699 226h-15v15h15v-15ZM632 221h-14v14h14v-14ZM596 343l15 1v-10h-15v9ZM583 193h-15v15h15v-15ZM582 231h-14v14h14v-14ZM583 212h-15v15h15v-15ZM610 314h-15v15h15v-15ZM609 294h-15v15h15v-15ZM609 274h-15v15h15v-15ZM585 309h-15v15h15v-15ZM571 339l11-1 4 1v-9h-15v9ZM556 187h-15v15h15v-15ZM583 250h-15v15h15v-15ZM583 269h-15v15h15v-15ZM584 289h-15v15h15v-15ZM633 297h-15v15h15v-15ZM632 239h-15v15h15v-15ZM633 278h-15v15h15v-15ZM632 259h-14v14h14v-14ZM555 205h-15v15h15v-15ZM642 353l3 1h12v-15h-15v14ZM633 202h-15v14h15v-14ZM619 348l15 2v-13h-15v11ZM608 198h-14v15h14v-15ZM608 217h-15v15h15v-15ZM656 319h-14v15h14v-15ZM608 236h-15v15h15v-15ZM608 255h-15v15h15v-15ZM634 317h-15v15h15v-15ZM580 972h-15v15h15v-15ZM681 953h-15v15h15v-15ZM681 972h-15v15h15v-15ZM681 934h-15v15h15v-15ZM661 896h-15v15h15v-15ZM661 877h-15v14h15v-14ZM701 915h-15v15h15v-15ZM661 858h-15v14h15v-14ZM646 853h15v-8l-15 4v4ZM701 953h-15v15h15v-15ZM666 853h15v-14l-15 5v9ZM701 934h-15v15h15v-15ZM681 877h-15v14h15v-14ZM681 896h-15v15h15v-15ZM681 858h-15v14h15v-14ZM681 915h-15v15h15v-15ZM641 934h-15v15h15v-15ZM641 953h-15v15h15v-15ZM641 915h-15v15h15v-15ZM641 972h-15v15h15v-15ZM641 896h-15v15h15v-15ZM621 853h-4 4ZM641 858h-15v14h15v-14ZM661 953h-15v15h15v-15ZM661 934h-15v15h15v-15ZM641 877h-15v14h15v-14ZM661 972h-15v15h15v-15ZM626 853h15v-3l-15 2v1ZM661 915h-15v15h15v-15ZM701 877h-15v14h15v-14ZM741 815v-10l-14 10h14ZM741 839h-14v14h14v-14ZM741 819h-14v15h14v-15ZM741 858h-14v14h14v-14ZM741 877h-14v14h14v-14ZM741 896h-14v15h14v-15ZM762 839h-15v14h15v-14ZM762 858h-15v14h15v-14ZM762 877h-15v14h15v-14ZM741 915h-14v15h14v-15ZM762 915h-15v15h15v-15ZM762 896h-15v15h15v-15ZM762 934h-15v15h15v-15ZM721 953h-15v15h15v-15ZM701 839h-15v14h15v-14ZM701 834v-4l-9 4h9ZM701 896h-15v15h15v-15ZM621 858h-15v14h15v-14ZM701 858h-15v14h15v-14ZM721 934h-15v15h15v-15ZM721 839h-15v14h15v-14ZM741 934h-14v15h14v-15ZM721 858h-15v14h15v-14ZM741 953h-14v15h14v-15ZM721 896h-15v15h15v-15ZM721 915h-15v15h15v-15ZM721 877h-15v14h15v-14ZM540 877h-15v14h15v-14ZM505 839v14h15v-11l-10-3h-5ZM540 972h-15v15h15v-15ZM621 877h-15v14h15v-14ZM520 896h-15v15h15v-15ZM520 915h-15v15h15v-15ZM520 877h-15v14h15v-14ZM540 953h-15v15h15v-15ZM520 934h-15v15h15v-15ZM540 858h-15v14h15v-14ZM525 853h15v-5l-15-4v9ZM480 877h-15v14h15v-14ZM540 896h-15v15h15v-15ZM540 934h-15v15h15v-15ZM540 915h-15v15h15v-15ZM480 839h-15v14h15v-14ZM520 953h-15v15h15v-15ZM500 953h-15v15h15v-15ZM500 934h-15v15h15v-15ZM480 858h-15v14h15v-14ZM500 915h-15v15h15v-15ZM560 972h-15v15h15v-15ZM465 819v15h15v-9l-9-6h-6ZM485 827v7h14l-14-7ZM520 972h-15v15h15v-15ZM500 839h-15v14h15v-14ZM500 858h-15v14h15v-14ZM500 877h-15v14h15v-14ZM500 896h-15v15h15v-15ZM520 858h-15v14h15v-14ZM600 915h-14v15h14v-15ZM600 934h-14v15h14v-15ZM600 896h-14v15h14v-15ZM565 852v1h9l-9-1ZM600 877h-14v14h14v-14ZM600 972h-14v15h14v-15ZM600 953h-14v15h14v-15ZM621 915h-15v15h15v-15ZM621 896h-15v15h15v-15ZM621 934h-15v15h15v-15ZM621 972h-15v15h15v-15ZM600 858h-14v14h14v-14ZM621 953h-15v15h15v-15ZM560 915h-15v15h15v-15ZM762 819h-15v15h15v-15ZM560 877h-15v14h15v-14ZM545 853h15v-1l-15-3v4ZM560 858h-15v14h15v-14ZM560 953h-15v15h15v-15ZM560 934h-15v15h15v-15ZM580 858h-15v14h15v-14ZM580 896h-15v15h15v-15ZM580 915h-15v15h15v-15ZM720 246h-14v15h14v-15ZM580 877h-15v14h15v-14ZM580 953h-15v15h15v-15ZM580 934h-15v15h15v-15ZM560 896h-15v15h15v-15ZM923 495h-15v15h15v-15ZM923 514h-15v15h15v-15ZM923 476h-15v15h15v-15ZM923 591h-15v14h15v-14ZM923 457h-15v15h15v-15ZM923 533h-15v15h15v-15ZM923 552h-15v15h15v-15ZM923 571h-15v15h15v-15ZM923 381h-15v15h15v-15ZM908 362v14h15v-7l-6-7h-9ZM923 438h-15v15h15v-15ZM908 350v7h6l-6-7ZM923 400h-15v15h15v-15ZM923 419h-15v15h15v-15ZM923 819h-15v15h15v-15ZM923 781h-15v15h15v-15ZM923 743h-15v15h15v-15ZM903 819h-15v15h15v-15ZM923 610h-15v14h15v-14ZM923 800h-15v15h15v-15ZM931 381h-3v15h13l-10-15ZM923 762h-15v15h15v-15ZM923 667h-15v15h15v-15ZM923 648h-15v15h15v-15ZM943 400h-15v15h15v-15ZM923 686h-15v15h15v-15ZM923 724h-15v15h15v-15ZM923 705h-15v15h15v-15ZM923 629h-15v15h15v-15ZM903 457h-15v15h15v-15ZM903 419h-15v15h15v-15ZM903 438h-15v15h15v-15ZM903 476h-15v15h15v-15ZM903 495h-15v15h15v-15ZM903 533h-15v15h15v-15ZM903 514h-15v15h15v-15ZM903 381h-15v15h15v-15ZM903 400h-15v15h15v-15ZM882 839h-14v14h14v-14ZM888 343v14h15v-13l-2-1h-13ZM888 328v10h9l-9-10ZM903 552h-15v15h15v-15ZM903 362h-15v14h15v-14ZM903 571h-15v15h15v-15ZM903 743h-15v15h15v-15ZM903 724h-15v15h15v-15ZM903 839h-15v14h15v-14ZM903 705h-15v15h15v-15ZM903 781h-15v15h15v-15ZM903 800h-15v15h15v-15ZM903 762h-15v15h15v-15ZM903 610h-15v14h15v-14ZM903 629h-15v15h15v-15ZM903 591h-15v14h15v-14ZM903 648h-15v15h15v-15ZM903 686h-15v15h15v-15ZM903 667h-15v15h15v-15ZM963 629h-15v15h15v-15ZM963 743h-15v15h15v-15ZM963 686h-15v15h15v-15ZM963 705h-15v15h15v-15ZM963 724h-15v15h15v-15ZM970 451l-2-3v5h2v-2ZM968 476v15h15v-2l-4-13h-11ZM972 457h-4v15h10l-6-15ZM963 591h-15v14h15v-14ZM983 495h-15v15h15v-15ZM963 571h-15v15h15v-15ZM963 610h-15v14h15v-14ZM963 648h-15v15h15v-15ZM882 858h-14v14h14v-14ZM963 667h-15v15h15v-15ZM968 758h1l1-2 5-13h-7v15ZM983 667h-15v15h15v-15ZM868 891h6l7-7 1-1v-6h-14v14ZM983 514h-15v15h15v-15ZM1000 591h-11v14h11v-14ZM983 648h-15v15h15v-15ZM963 552h-15v15h15v-15ZM983 686h-15v15h15v-15ZM983 552h-15v15h15v-15ZM983 571h-15v15h15v-15ZM983 533h-15v15h15v-15ZM983 610h-15v14h15v-14ZM983 629h-15v15h15v-15ZM983 591h-15v14h15v-14ZM963 533h-15v15h15v-15ZM943 667h-15v15h15v-15ZM943 419h-15v15h15v-15ZM943 571h-15v15h15v-15ZM943 610h-15v14h15v-14ZM943 648h-15v15h15v-15ZM943 629h-15v15h15v-15ZM943 591h-15v14h15v-14ZM943 457h-15v15h15v-15ZM943 533h-15v15h15v-15ZM943 438h-15v15h15v-15ZM943 476h-15v15h15v-15ZM943 514h-15v15h15v-15ZM943 495h-15v15h15v-15ZM943 552h-15v15h15v-15ZM963 457h-15v15h15v-15ZM963 438h-15v15h15v-15ZM963 476h-15v15h15v-15ZM943 686h-15v15h15v-15ZM963 514h-15v15h15v-15ZM954 419h-6v15h14l-8-15ZM963 495h-15v15h15v-15ZM943 724h-15v15h15v-15ZM948 408v7h4l-4-7ZM943 705h-15v15h15v-15ZM943 743h-15v15h15v-15ZM720 227h-14v15h14v-15ZM943 781h-15v15h15v-15ZM943 762h-15v15h15v-15ZM862 324h-15v14h15v-14ZM802 304h-15v15h15v-15ZM802 266h-15v15h15v-15ZM802 324h-15v14h15v-14ZM822 438h-15v15h15v-15ZM782 440v-2h-2l2 2ZM802 467v-10h-7l7 10ZM822 457h-15v15h15v-15ZM802 343h-15v14h15v-14ZM802 400h-15v15h15v-15ZM787 446l5 7h10v-15h-15v8ZM802 419h-15v15h15v-15ZM802 381h-15v15h15v-15ZM802 362h-15v14h15v-14ZM807 477l8 14h7v-15h-15v1ZM432 328h4l11-5v-10h-15v15ZM822 506v-11h-5l5 11ZM706 827v7h15v-15h-1l-14 8ZM862 304h-15v15h15v-15ZM847 292v8h11l-11-8ZM822 285h-15v15h15v-15ZM822 343h-15v14h15v-14ZM822 362h-15v14h15v-14ZM822 381h-15v15h15v-15ZM822 400h-15v15h15v-15ZM822 419h-15v15h15v-15ZM822 304h-15v15h15v-15ZM822 324h-15v14h15v-14ZM802 285h-15v15h15v-15ZM741 401v-1h-1l1 1ZM747 405l11 10h4v-15h-15v5ZM741 247h-15v15h15v-15ZM741 266h-15v15h15v-15ZM762 362h-15v14h15v-14ZM762 381h-15v15h15v-15ZM741 304h-15v15h15v-15ZM741 361h-15v15h15v-15ZM782 266h-15v15h15v-15ZM726 390l8 5h7v-14h-15v9ZM741 285h-15v15h15v-15ZM761 343h-14v14h14v-14ZM741 323h-15v15h15v-15ZM741 342h-15v15h15v-15ZM782 381h-15v15h15v-15ZM782 362h-15v14h15v-14ZM782 323h-15v15h15v-15ZM782 343h-15v14h15v-14ZM782 285h-15v15h15v-15ZM782 304h-15v15h15v-15ZM761 323h-14v15h14v-15ZM782 400h-15v15h15v-15ZM761 285h-14v15h14v-15ZM761 304h-14v15h14v-15ZM761 266h-14v15h14v-15ZM767 423l1 2 8 9h6v-15h-15v4ZM761 247h-14v15h14v-15ZM862 571h-15v15h15v-15ZM882 419h-14v15h14v-15ZM882 457h-14v15h14v-15ZM882 438h-14v15h14v-15ZM882 476h-14v15h14v-15ZM882 533h-14v15h14v-15ZM882 514h-14v15h14v-15ZM882 495h-14v15h14v-15ZM882 362h-14v14h14v-14ZM882 324h-14v14h14v-14ZM868 309v10h11l-11-10ZM882 343h-14v14h14v-14ZM882 400h-14v15h14v-15ZM882 381h-14v15h14v-15ZM862 858h-15v14h15v-14ZM882 552h-14v15h14v-15ZM882 762h-14v15h14v-15ZM882 743h-14v15h14v-15ZM882 724h-14v15h14v-15ZM882 781h-14v15h14v-15ZM882 705h-14v15h14v-15ZM882 571h-14v15h14v-15ZM882 800h-14v15h14v-15ZM882 610h-14v14h14v-14ZM882 629h-14v15h14v-15ZM882 591h-14v14h14v-14ZM882 686h-14v15h14v-15ZM882 667h-14v15h14v-15ZM882 648h-14v15h14v-15ZM862 400h-15v15h15v-15ZM862 514h-15v15h15v-15ZM862 533h-15v15h15v-15ZM862 495h-15v15h15v-15ZM862 476h-15v15h15v-15ZM862 552h-15v15h15v-15ZM882 819h-14v15h14v-15ZM862 362h-15v14h15v-14ZM862 457h-15v15h15v-15ZM862 343h-15v14h15v-14ZM862 591h-15v14h15v-14ZM862 381h-15v15h15v-15ZM862 438h-15v15h15v-15ZM862 419h-15v15h15v-15ZM862 743h-15v15h15v-15ZM862 800h-15v15h15v-15ZM862 781h-15v15h15v-15ZM862 762h-15v15h15v-15ZM862 839h-15v14h15v-14ZM862 877h-15v14h15v-14ZM862 610h-15v14h15v-14ZM862 819h-15v15h15v-15ZM862 667h-15v15h15v-15ZM862 648h-15v15h15v-15ZM862 629h-15v15h15v-15ZM862 705h-15v15h15v-15ZM862 724h-15v15h15v-15ZM862 686h-15v15h15v-15ZM663 221h15v-9l-15-3v12ZM42 141v-1l-1 1h1ZM278 724h-15v15h15v-15ZM278 705h-15v15h15v-15ZM278 800h-15v15h15v-15ZM258 534h-15v15h15v-15ZM277 685h-15v15h15v-15ZM278 762h-15v15h15v-15ZM278 743h-15v15h15v-15ZM277 666h-15v14h15v-14ZM271 603h-14v15h14v-15ZM264 558h-15v15h15v-15ZM268 581h-15v15h15v-15ZM275 645h-14v15h14v-15ZM274 625h-15v15h15v-15ZM278 781h-15v15h15v-15ZM271 508h-15v15h15v-15ZM262 481h-15v15h15v-15ZM251 452h-15v15h15v-15ZM284 558h-15v15h15v-15ZM237 420h-14v15h14v-15ZM278 534h-15v15h15v-15ZM221 386h-15v15h15v-15ZM153 267h-15v15h15v-15ZM123 220h-15v15h15v-15ZM88 169H73v15h15v-15ZM202 350h-15v15h15v-15ZM180 310h-15v15h15v-15ZM53 183v1h15v-15h-4l-11 14ZM244 559h-15v14h15v-14ZM255 645h-14v15h14v-15ZM254 625h-15v15h15v-15ZM251 604h-14v14h14v-14ZM256 666h-14v14h14v-14ZM258 705h-15v15h15v-15ZM257 685h-15v15h15v-15ZM222 482h-14v15h14v-15ZM258 724h-15v15h15v-15ZM212 453h-15v15h15v-15ZM248 582h-15v14h15v-14ZM231 509h-15v15h15v-15ZM288 581h-15v15h15v-15ZM238 534h-14v15h14v-15ZM231 452h-15v15h15v-15ZM159 310h-14v15h14v-15ZM258 743h-15v15h15v-15ZM182 350h-15v15h15v-15ZM201 386h-15v15h15v-15ZM198 422h-14v14h14v-14ZM242 481h-15v15h15v-15ZM217 420h-15v15h15v-15ZM258 762h-15v15h15v-15ZM258 781h-15v15h15v-15ZM133 267h-15v15h15v-15ZM89 240v-12l-8 12h8ZM102 278v7h15v-14h-10l-5 7Z"/><path d="M103 220H88v15h15v-15ZM251 508h-15v15h15v-15ZM318 724h-15v15h15v-15ZM318 743h-15v15h15v-15ZM318 781h-14v15h14v-15ZM318 762h-14v15h14v-15ZM318 800h-14v15h14v-15ZM318 858h-14v14h14v-14ZM318 819h-14v15h14v-15ZM318 685h-15v15h15v-15ZM314 625h-15v15h15v-15ZM316 645h-15v15h15v-15ZM312 604h-15v14h15v-14ZM317 666h-15v14h15v-14ZM318 839h-14v14h14v-14ZM318 705h-15v15h15v-15ZM147 186h-15v15h15v-15ZM6 33v-6l-6 6h6ZM267 391h-15v15h15v-15ZM249 356h-15v15h15v-15ZM228 318h-15v15h15v-15ZM304 483h-14v15h14v-15ZM294 454h-15v15h15v-15ZM282 424h-15v15h15v-15ZM78 84H63v15h15V84ZM21 68v11h15V64H25l-4 4ZM114 136H99v15h15v-15ZM204 277h-14v15h14v-15ZM309 582h-15v14h15v-14ZM177 233h-14v15h14v-15ZM298 800h-15v15h15v-15ZM292 603h-15v15h15v-15ZM298 781h-15v15h15v-15ZM298 762h-15v15h15v-15ZM298 743h-15v15h15v-15ZM17 80v-5l-5 5h5ZM298 819h-15v15h15v-15ZM298 839h-15v14h15v-14ZM297 666h-15v14h15v-14ZM296 645h-15v15h15v-15ZM294 625h-15v15h15v-15ZM304 559h-15v14h15v-14ZM298 724h-15v15h15v-15ZM297 685h-14v15h14v-15ZM298 705h-15v15h15v-15ZM283 482h-15v14h15v-14ZM272 453h-15v14h15v-14ZM259 421h-15v15h15v-15ZM299 534h-15v15h15v-15ZM292 509h-15v15h15v-15ZM243 388h-15v15h15v-15ZM203 313h-15v14h15v-14ZM115 175h-15v15h15v-15ZM148 224h-15v15h15v-15ZM77 121H62v15h15v-15ZM177 270h-15v15h15v-15ZM33 120v8h15v-15h-8l-7 7ZM224 352h-14v15h14v-15ZM994 533h-5v15h7l-2-15ZM948 796h2l8-15h-10v15ZM968 720h15v-15h-15v15ZM888 872h5l10-10v-4h-15v14ZM948 777h12l3-6v-9h-15v15ZM928 815h10l5-7v-8h-15v15ZM908 853h2l12-14h-14v14ZM928 830l7-11h-7v11ZM968 739h8l5-15h-13v15ZM989 624h10l1-14h-11v14ZM999 571h-10v15h11l-1-15ZM989 699l2-13h-2v13ZM989 644h9l1-15h-10v15ZM989 682h3l3-15h-6v15ZM989 663h7l1-15h-8v15ZM706 985l15-4v-9h-15v13ZM997 552h-8v15h9l-1-15ZM727 979l14-5v-2h-14v7ZM888 878l1-1h-1v1ZM666 994l15-2v-1h-15v3ZM686 987h15v-15h-15v15ZM767 963l15-7v-3h-15v10ZM747 968h9l6-3v-12h-15v15ZM847 911h5l10-9v-6h-15v15ZM827 928l15-10v-3h-15v13ZM868 897l1-1h-1v1ZM807 941l12-7h-12v7ZM787 953ZM787 949h8l7-4v-11h-15v15ZM194 511h-15v15h15v-15ZM180 576h6v-15h-5l-1 15ZM187 620h5v-15h-6l1 15ZM646 997l15-2v-4h-15v6ZM177 552h4v-15h-3l-1 15ZM186 485h-15v15h15v-15ZM190 640h4v-14h-5l1 14ZM175 528v-14l-2 14h2ZM194 661h1v-15h-3l2 15ZM218 746v-3h-2l2 3ZM215 739h3v-15h-8l5 15ZM208 720h9v-15h-13l4 15ZM196 671v-5h-1l1 5ZM202 698l1 2h14v-15h-15v13ZM200 536h-15v15h15v-15ZM154 442h10v-15h-5l-5 15ZM184 596v2h5v-15h-5v13ZM151 411v-12l-4 12h4ZM161 470v2h15v-15h-11l-4 13ZM989 508v2-2ZM990 514h-1v15h4l-3-15ZM212 604h-15v15h15v-15ZM209 583h-15v14h15v-14ZM313 510h-15v15h15v-15ZM205 560h-15v15h15v-15ZM216 666h-14v15h14v-15ZM214 625h-15v15h15v-15ZM215 646h-14v15h14v-15ZM278 850v-11h-9l9 11ZM181 424h-15v15h15v-15ZM219 535h-15v15h15v-15ZM238 743h-15v15h15v-15ZM166 391h-15v15h15v-15ZM193 455h-14v14h14v-14ZM212 510h-15v15h15v-15ZM626 999l15-1v-7h-15v8ZM231 777h7v-15h-14l7 15ZM263 830l3 4h12v-15h-15v11ZM183 388h-15v15h15v-15ZM238 790v-9h-5l5 9ZM298 872v-14h-13l13 14ZM253 815h5v-15h-14l9 15ZM258 823v-4h-2l2 4ZM237 685h-15v15h15v-15ZM118 332h9v-15h-1l-8 15ZM134 366v5h14v-15h-10l-4 10ZM238 724h-15v15h15v-15ZM237 705h-14v15h14v-15ZM164 352h-15v15h15v-15ZM142 313h-14v15h14v-15ZM228 582h-14v15h14v-15ZM232 604h-15v15h15v-15ZM234 625h-15v15h15v-15ZM224 559h-14v15h14v-15ZM236 666h-14v14h14v-14ZM235 646h-14v14h14v-14ZM304 878l6 6 7 7h1v-14h-14v1ZM204 483h-15v15h15v-15ZM459 953h-14v15h14v-15ZM459 977v-5h-14l14 5ZM465 979l15 5v-12h-15v7ZM485 985l6 2h9v-15h-15v13ZM459 819h-14v15h14v-15ZM459 839h-14v14h14v-14ZM565 999l15 1v-9h-15v8ZM459 858h-14v14h14v-14ZM586 1000h14v-9h-14v9ZM606 1000h15v-9h-15v9ZM525 994l15 3v-6h-15v3ZM545 997l15 2v-8h-15v6ZM520 993v-2h-11l11 2ZM459 896h-14v15h14v-15ZM379 939v-5h-8l8 5ZM424 963l11 5h4v-15h-15v10ZM404 953l15 8v-8h-15ZM459 877h-14v14h14v-14ZM359 925v-10h-14l14 10ZM364 929l1 1h14v-15h-15v14ZM384 942l12 7h3v-15h-15v8ZM459 915h-14v15h14v-15ZM459 934h-14v15h14v-15ZM324 897l14 13v-14h-14v1ZM439 800h-15v15h15v-15ZM445 815h14v-3l-14-11v14ZM424 783v13h15l-15-13ZM105 44h15V30l-15 10v4ZM726 228v15h15v-11l-12-4h-3ZM705 220v3h10l-10-3ZM685 222h14v-4l-14-3v7ZM641 219h15v-12l-15-2v14ZM767 247v15h15v-12l-6-3h-9ZM747 234v9h14v-3l-11-4-3-2ZM767 243ZM391 143v-2l-4 2h4ZM787 262h15v-1l-15-8v9ZM411 156h15v-6l-15 3v3ZM512 179v15h15v-15h-15ZM325 134h15v-15l-15 6v9ZM481 184h15v-14l-15 2v12ZM448 171h14v-10c-5 0-9 1-14 3v7ZM842 457h-15v15h15v-15ZM842 381h-15v15h15v-15ZM842 400h-15v15h15v-15ZM842 438h-15v15h15v-15ZM842 419h-15v15h15v-15ZM807 266v15h15v-7l-11-8h-4ZM842 476h-15v15h15v-15ZM378 339v5l7-5h-7ZM827 285v15h15v-12l-3-3h-12ZM842 362h-15v14h15v-14ZM827 277v4h6l-6-4ZM842 304h-15v15h15v-15ZM842 324h-15v14h15v-14ZM842 343h-15v14h15v-14ZM340 406h-11v15h2l9-15ZM353 646h-11v15h14l-3-15ZM358 705h-14v15h14v-15ZM357 666h-14v15h14v-15ZM358 685h-15v15h15v-15ZM359 743h-15v15h15v-15ZM359 724h-15v15h15v-15ZM258 156h-15v15h15v-15ZM359 762h-15v15h15v-15ZM271 188h-15v15h15v-15ZM842 495h-15v15h15v-15ZM286 221h-14v15h14v-15ZM247 127h-15v15h15v-15ZM240 102h-15v15h15v-15ZM359 896h-15v15h15v-15ZM439 819h-15v15h15v-15ZM359 781h-15v15h15v-15ZM439 839h-15v14h15v-14ZM439 858h-15v14h15v-14ZM439 896h-15v15h15v-15ZM439 934h-15v15h15v-15ZM439 877h-15v14h15v-14ZM359 819h-15v15h15v-15ZM359 877h-15v14h15v-14ZM359 839h-15v14h15v-14ZM359 800h-15v15h15v-15ZM359 858h-15v14h15v-14ZM439 915h-15v15h15v-15ZM782 896h-15v15h15v-15ZM802 800h-15v15h15v-15ZM802 781h-15v15h15v-15ZM802 762h-15v15h15v-15ZM788 758h14v-15h-3l-11 15ZM802 858h-15v14h15v-14ZM802 839h-15v14h15v-14ZM802 877h-15v14h15v-14ZM802 819h-15v15h15v-15ZM822 858h-15v14h15v-14ZM822 839h-15v14h15v-14ZM822 877h-15v14h15v-14ZM822 896h-15v15h15v-15ZM802 739v-1 1ZM822 915h-15v15h15v-15ZM782 915h-15v15h15v-15ZM302 254h-15v15h15v-15ZM782 858h-15v14h15v-14ZM782 877h-15v14h15v-14ZM822 819h-15v15h15v-15ZM782 934h-15v15h15v-15ZM762 796v-8l-10 8h10ZM782 819h-15v15h15v-15ZM782 777v-11l-10 11h10ZM767 783v13h15v-15h-14l-1 2ZM802 915h-15v15h15v-15ZM782 839h-15v14h15v-14ZM802 896h-15v15h15v-15ZM782 800h-15v15h15v-15ZM822 762h-15v15h15v-15ZM842 705h-15v15h15v-15ZM842 686h-15v15h15v-15ZM834 663h8v-15h-5l-3 15ZM828 682h14v-15h-10l-4 15ZM842 743h-15v15h15v-15ZM842 724h-15v15h15v-15ZM841 603l-1 2h2v-14h-2l1 12ZM838 567h4v-15h-6l2 15ZM835 548h7v-15h-11l4 15ZM837 644h5v-15h-3l-2 15ZM840 586h2v-15h-4l2 15ZM842 762h-15v15h15v-15ZM840 624h2v-14h-2v14ZM842 877h-15v14h15v-14ZM822 743h-15v15h15v-15ZM807 729v10h15v-15h-12l-3 5ZM813 720h9v-15h-2l-7 15ZM822 781h-15v15h15v-15ZM821 701h1v-1l-1 1ZM827 522l3 7h12v-15h-15v8ZM842 781h-15v15h15v-15ZM842 819h-15v15h15v-15ZM842 800h-15v15h15v-15ZM842 896h-15v15h15v-15ZM842 839h-15v14h15v-14ZM842 858h-15v14h15v-14ZM822 800h-15v15h15v-15ZM332 604h-15v15h15v-15ZM419 781h-15v15h15v-15ZM357 357v4l4-4h-4ZM419 800h-15v15h15v-15ZM419 877h-15v14h15v-14ZM419 858h-15v14h15v-14ZM419 819h-15v15h15v-15ZM419 839h-15v14h15v-14ZM406 762h-2v15h15l-13-15ZM306 182h-15v15h15v-15ZM351 347h9l6-5v-9h-15v14ZM316 211h-15v15h15v-15ZM298 155h-15v15h15v-15ZM290 111h-14v15h14v-15ZM328 241h-15v15h15v-15ZM292 131h-15v15h15v-15ZM399 819h-15v15h15v-15ZM399 839h-15v14h15v-14ZM399 877h-15v14h15v-14ZM399 858h-15v14h15v-14ZM399 915h-15v15h15v-15ZM399 896h-15v15h15v-15ZM399 781h-15v15h15v-15ZM384 743v15h15v-5l-7-10h-8ZM419 934h-15v15h15v-15ZM419 915h-15v15h15v-15ZM419 896h-15v15h15v-15ZM399 800h-15v15h15v-15ZM399 762h-15v15h15v-15ZM338 781h-14v15h14v-15ZM338 743h-14v15h14v-15ZM338 724h-14v15h14v-15ZM338 705h-15v15h15v-15ZM338 685h-15v15h15v-15ZM384 730v9h5l-5-9ZM338 800h-14v15h14v-15ZM338 762h-14v15h14v-15ZM320 535h-15v15h15v-15ZM337 666h-15v14h15v-14ZM325 559h-15v15h15v-15ZM329 582h-15v15h15v-15ZM341 271h-15v15h15v-15ZM336 646h-15v14h15v-14ZM335 625h-15v15h15v-15ZM183 64v-7l-12 7h12ZM747 801v14h15v-15h-15v1ZM223 86v9h14V80h-3l-11 6ZM354 302h-15v15h15v-15ZM338 819h-14v15h14v-15ZM277 107h15v-6l-15 6ZM74 20ZM338 858h-14v14h14v-14ZM55 27v8h15V21h-6l-9 6ZM338 839h-14v14h14v-14ZM338 877h-14v14h14v-14ZM26 35v11h15V31H30l-4 4ZM25 12V8l-5 4h5ZM224 163h-15v15h15v-15ZM246 258h-15v15h15v-15ZM267 297h-15v15h15v-15ZM286 333h-15v15h15v-15ZM223 218h-15v15h15v-15ZM152 96h-15v15h15V96ZM199 177h-15v15h15v-15ZM175 136h-15v15h15v-15ZM332 485v7l3-7h-3ZM303 368h-15v15h15v-15ZM133 60h-15v15h15V60ZM125 109h-15v15h15v-15ZM331 470l5-10h-11v15h4l2-5ZM317 401h-15v14h15v-14ZM315 446h12l3-6v-9h-15v15ZM96 63H81v15h15V63ZM182 68h-14v15h14V68ZM341 380v7l6-7h-6ZM206 128h-15v14h15v-14ZM192 95h-15v15h15V95ZM333 321h-15v15h15v-15ZM332 368h10l5-6v-9h-15v15ZM243 199h-15v15h15v-15ZM300 309h-15v15h15v-15ZM316 343h-15v15h15v-15ZM318 288h-15v15h15v-15ZM282 273h-15v15h15v-15ZM331 376h-15v14h15v-14ZM263 237h-15v14h15v-14ZM379 800h-15v15h15v-15ZM379 877h-15v14h15v-14ZM379 858h-15v14h15v-14ZM379 896h-15v15h15v-15ZM379 839h-15v14h15v-14ZM369 699l-5-14h-1v15h6v-1ZM155 156h-15v15h15v-15ZM379 762h-15v15h15v-15ZM345 604h-7v15h8l-1-15ZM379 743h-15v15h15v-15ZM379 819h-15v15h15v-15ZM379 724h-15v15h15v-15ZM379 781h-15v15h15v-15ZM371 705h-7v15h14l-7-15ZM348 625h-8v15h11l-3-15ZM256 325h-15v15h15v-15ZM235 286h-15v15h15v-15ZM342 595l1-13h-8v15h7v-2ZM291 395h-14v15h14v-15ZM184 201h-15v15h15v-15ZM210 245h-14v15h14v-15ZM275 361h-15v15h15v-15ZM305 427h-15v15h15v-15ZM340 560h-9v15h8l1-15ZM320 526h13l2-8v-7h-15v15ZM338 536h-12v15h10l2-15ZM327 485h-15v15h15v-15ZM317 457h-15v15h15v-15Z"/></g><defs><clipPath id="a"><path fill="#fff" d="M0 0h1000v1000H0z"/></clipPath></defs></svg>